<?xml version="1.0" standalone="no"?>
<!DOCTYPE svg PUBLIC "-//W3C//DTD SVG 20010904//EN"
 "http://www.w3.org/TR/2001/REC-SVG-20010904/DTD/svg10.dtd">
<svg version="1.0" xmlns="http://www.w3.org/2000/svg"
 width="2048.000000pt" height="2048.000000pt" viewBox="0 0 2048.000000 2048.000000"
 preserveAspectRatio="xMidYMid meet">

<g transform="translate(0.000000,2048.000000) scale(0.100000,-0.100000)"
fill="#000000" stroke="none">
<path d="M12412 7468 c-262 -595 -322 -732 -322 -740 0 -4 44 -8 98 -8 l97 0
44 115 44 115 207 0 c114 0 221 3 238 6 30 6 32 4 57 -52 15 -33 36 -87 48
-121 l22 -63 107 0 c98 0 107 2 101 18 -8 19 -98 226 -299 685 l-139 317 -91
0 -91 0 -121 -272z m295 -151 l82 -192 -166 -3 c-91 -1 -167 -1 -169 1 -5 5
159 387 166 387 3 0 42 -87 87 -193z"/>
<path d="M13560 7724 c-169 -45 -271 -204 -226 -355 32 -111 104 -162 316
-224 184 -54 230 -85 230 -154 0 -49 -21 -76 -75 -97 -99 -37 -263 0 -374 85
l-45 34 -29 -34 c-16 -19 -42 -50 -58 -71 l-29 -36 38 -30 c99 -79 254 -132
383 -132 245 0 404 136 386 330 -13 145 -93 208 -357 285 -68 20 -137 44 -151
52 -51 30 -64 101 -29 146 29 36 81 51 159 44 87 -7 124 -19 196 -63 34 -20
61 -31 63 -25 2 6 24 39 49 73 l46 62 -24 19 c-38 32 -147 78 -218 93 -84 17
-180 17 -251 -2z"/>
<path d="M5597 7723 c-4 -3 -7 -231 -7 -505 l0 -498 380 0 379 0 -2 85 -2 85
-277 0 -277 0 -6 33 c-3 17 -5 75 -3 127 l3 95 248 3 248 2 -3 83 -3 82 -245
0 -245 0 0 120 0 120 273 3 272 2 0 85 0 85 -363 0 c-200 0 -367 -3 -370 -7z"/>
<path d="M6530 7608 c27 -68 118 -294 203 -503 l153 -380 93 0 93 0 109 260
c118 280 299 728 299 739 0 4 -45 5 -101 4 l-101 -3 -39 -105 c-79 -208 -242
-625 -248 -632 -4 -5 -62 135 -129 310 -67 174 -132 343 -144 374 l-23 58
-106 0 -107 0 48 -122z"/>
<path d="M7670 7286 c0 -243 -3 -471 -6 -505 l-7 -61 382 0 381 0 0 85 0 85
-279 0 -279 0 -7 63 c-4 34 -5 91 -3 127 l3 65 245 3 245 2 0 81 0 80 -242 -1
-243 -1 0 126 0 125 275 0 275 0 0 85 0 85 -370 0 -370 0 0 -444z"/>
<path d="M8690 7225 l0 -505 95 0 95 0 0 338 1 337 22 -30 c28 -38 235 -296
396 -493 l124 -153 71 3 c39 2 70 6 69 11 -2 4 -3 230 -3 502 l0 496 -92 -3
-93 -3 0 -322 c0 -178 -2 -323 -5 -322 -3 0 -120 146 -260 324 l-255 323 -82
1 -83 1 0 -505z"/>
<path d="M9790 7645 l0 -84 158 -3 157 -3 3 -417 2 -418 95 0 95 0 0 420 0
420 165 0 165 0 0 85 0 85 -420 0 -420 0 0 -85z"/>
<path d="M11180 7225 l0 -505 380 0 380 0 0 85 0 85 -285 0 -285 0 0 130 0
130 245 0 245 0 0 86 0 87 -242 -4 -243 -4 0 120 0 120 273 3 272 2 0 85 0 85
-370 0 -370 0 0 -505z"/>
<path d="M14341 7723 c0 -5 -2 -232 -5 -505 l-5 -498 380 0 379 0 0 85 0 85
-282 2 -283 3 -3 95 c-2 52 0 110 3 128 l6 32 244 0 245 0 0 87 0 86 -244 -7
c-134 -4 -246 -3 -248 1 -2 4 -2 61 0 126 l4 117 274 0 274 0 0 85 0 85 -370
0 c-203 0 -370 -3 -369 -7z"/>
</g>
</svg>
